<?xml version="1.0" encoding="utf-8"?>
<!-- Generator: Adobe Illustrator 26.4.1, SVG Export Plug-In . SVG Version: 6.00 Build 0)  -->
<svg version="1.1" id="Layer_1" xmlns="http://www.w3.org/2000/svg" xmlns:xlink="http://www.w3.org/1999/xlink" x="0px" y="0px"
	 viewBox="0 0 233 33.13" style="enable-background:new 0 0 233 33.13;" xml:space="preserve" fill='white'>
<g>
	<path d="M0,27.24l7.79-6.16c1.45,2.33,3.48,3.57,5.37,3.57c1.59,0,2.82-0.97,2.82-1.94c0-1.37-2.42-1.76-5.24-2.55
		c-4.18-1.14-9.33-3.04-9.33-9.68C1.41,4.44,6.07,0,13.07,0c6.12,0,9.77,2.73,12.06,5.54l-7.26,5.63c-1.06-1.89-2.91-3.26-4.75-3.26
		c-1.5,0-2.51,0.84-2.51,1.8c0,1.41,2.42,1.89,5.32,2.73c4.27,1.23,9.59,3.17,9.59,9.77c0,5.85-4.49,10.91-12.41,10.91
		C6.12,33.13,2.68,30.23,0,27.24z"/>
	<path d="M26.24,20.64V0.53h9.24v20.16c0,2.77,1.1,4.09,3.21,4.09s3.17-1.32,3.17-4.09V0.53h9.24v20.11
		c0,7.79-4.53,12.45-12.45,12.45C30.73,33.09,26.24,28.43,26.24,20.64z"/>
	<path d="M51.87,16.59c0-9.46,6.82-16.5,16.64-16.5c6.82,0,11.84,3.3,14.61,7.79l-8.14,4.27c-1.01-2.07-3.43-3.43-6.42-3.43
		c-4.05,0-7.44,3.08-7.44,7.88c0,5.06,2.99,7.88,7.52,7.88c2.69,0,4.67-1.14,5.59-3.3h-7.7v-8.45h17.82v4.84
		c0,8.4-6.42,15.53-15.49,15.53C57.98,33.09,51.87,25.52,51.87,16.59z"/>
	<path d="M91.8,0.53h8.62l10.6,32.12h-9.19l-1.19-3.83h-9.15l-1.19,3.83h-9.15L91.8,0.53z M96.11,14.08L94,20.73h4.13L96.11,14.08z"
		/>
	<path d="M111.13,0.53h12.67c8.45,0,12.67,5.28,12.67,11.71c0,3.96-1.72,7.44-4.84,9.59l5.54,10.82h-10.34l-3.92-8.4h-2.59v8.4h-9.2
		V0.53z M120.33,8.89v7.09h3.03c2.02,0,3.7-1.14,3.7-3.57c0-2.33-1.67-3.52-3.7-3.52H120.33z"/>
	<path d="M137.28,0.53h9.28l6.65,9.24l6.91-9.24h8.8v32.12h-9.2V15.31l-6.51,8.8l-6.73-9.02v17.56h-9.2V0.53z"/>
	<path d="M169.69,16.59c0-9.11,7.17-16.5,16.41-16.5c9.15,0,16.46,7.39,16.46,16.5c0,9.15-7.17,16.5-16.46,16.5
		C176.86,33.09,169.69,25.74,169.69,16.59z M193.19,16.59c0-4.05-2.9-7.44-7.08-7.44s-7.04,3.39-7.04,7.44
		c0,4.05,2.73,7.44,7.04,7.44C190.42,24.03,193.19,20.64,193.19,16.59z"/>
	<path d="M201.52,24.16L212.17,8.8h-10.65V0.53h21.26v8.19L212,24.29h10.78v8.36h-21.26V24.16z"/>
	<path d="M223.63,0.53H233v32.12h-9.37V0.53z"/>
	<polygon points="110,0.53 101.52,0.53 104.13,8.42 	"/>
</g>
</svg>
