<?xml version="1.0" encoding="utf-8"?>
<!-- Generator: Adobe Illustrator 26.1.0, SVG Export Plug-In . SVG Version: 6.00 Build 0)  -->
<svg version="1.1" id="Layer_1" xmlns="http://www.w3.org/2000/svg" xmlns:xlink="http://www.w3.org/1999/xlink" x="0px" y="0px"
	 width="335.6px" height="335.6px" viewBox="0 0 335.6 335.6" style="enable-background:new 0 0 335.6 335.6;" xml:space="preserve"
	>
<path d="M167.8,335.6C75.3,335.6,0,260.3,0,167.8S75.3,0,167.8,0s167.8,75.3,167.8,167.8S260.3,335.6,167.8,335.6z M167.8,17
	C84.7,17,17,84.6,17,167.8s67.6,150.8,150.8,150.8S318.6,251,318.6,167.8S250.9,17,167.8,17z"/>
<path d="M153.2,256.7h-24.4c-4.8,0-8.6-3.9-8.6-8.6V87.5c0-4.8,3.9-8.6,8.6-8.6h24.4c4.8,0,8.6,3.9,8.6,8.6V248
	C161.8,252.8,158,256.7,153.2,256.7z"/>
<path d="M206.8,256.7h-24.4c-4.8,0-8.6-3.9-8.6-8.6V87.5c0-4.8,3.9-8.6,8.6-8.6h24.4c4.8,0,8.6,3.9,8.6,8.6V248
	C215.3,252.8,211.5,256.7,206.8,256.7z"/>
</svg>
